<?xml version="1.0" encoding="utf-8"?>
<!-- Generator: Adobe Illustrator 24.0.2, SVG Export Plug-In . SVG Version: 6.00 Build 0)  -->
<svg version="1.1" id="Capa_1" xmlns="http://www.w3.org/2000/svg" xmlns:xlink="http://www.w3.org/1999/xlink" x="0px" y="0px"
	 viewBox="0 0 296.8 101.5" style="enable-background:new 0 0 296.8 101.5;" xml:space="preserve">
<style type="text/css">
	.st0{fill:#3D3C3A;}
	.st1{opacity:0.3;}
	.st2{fill:none;stroke:#000000;stroke-width:0.9463;stroke-miterlimit:10;}
	.st3{fill:#FFC71D;}
	.st4{fill:none;stroke:#3D3C3A;stroke-width:0.9463;stroke-miterlimit:10;}
	.st5{fill:none;stroke:#000000;stroke-width:0.9463;stroke-miterlimit:10.0001;}
	.st6{fill:none;stroke:#3D3C3A;stroke-width:0.9463;stroke-miterlimit:10.0001;}
</style>
<title>spot-it-logo</title>
<g id="Capa_3">
	<polygon class="st0" points="265.7,15.9 263.1,52.6 277.9,54.6 285.5,19.9 	"/>
	<polygon class="st0" points="204.4,22.3 222.4,22.3 222.4,71.4 198.1,69.3 	"/>
	<ellipse class="st0" cx="212.8" cy="10.6" rx="12.3" ry="8.8"/>
	<path class="st0" d="M65.7,46.6c0.8,5.2,0,10.6-2.2,15.4c-0.9,2.4-2.3,5-4.2,6.8c-7.1,6.7-21.7,5.1-21.7,5.1
		c-8.5-0.1-20.2-5.6-25.9-8.6c-2.2-1.1-3.6-2-3.6-2l12.3-22.2c0.9,1,2,2,3,2.9c0.8,0.7,1.5,1.2,2.4,1.7c2.7,1.8,5.8,3.2,9,4
		c5.4,1.5,6.2-2.6,6.2-2.6c0.2-0.8,0-1.4-0.5-2l0,0c-1-1.2-2.5-2.2-4-2.8c-2.4-0.8-8.8-3.1-8.8-3.1c-0.9-0.4-1.8-0.9-2.6-1.3l0,0
		c-5.1-3-8.2-8.6-8-14.7C17.8-1.1,40.8,0.8,40.8,0.8C52.6,1,60.2,5.5,64.3,9.2l0,0c1.6,1.3,2.9,2.9,4.2,4.6L57.3,26.2
		c-0.9-0.9-1.8-1.7-2.9-2.3l-0.2-0.1c-0.9-1-1.9-1.8-3-2.5c-0.7-0.3-1.4-0.4-2.1-0.2c-0.6,0.2-1,0.5-1.4,0.9
		c-0.2,0.2-0.3,0.4-0.3,0.6s0,0.4,0,0.6c0.2,0.9,0.8,1.7,1.4,2.3c0.5,0.5,1,0.9,1.6,1.2l0.9,0.5c0.2,0.3,0.5,0.6,0.8,0.8
		c0.5,0.5,1,0.9,1.6,1.3c1.8,0.9,3.5,1.8,5.1,2.8l0.3,0.3C63,36.1,64.9,41.4,65.7,46.6z"/>
</g>
<g id="Logo_spot_it_frente">
	
		<ellipse transform="matrix(0.2387 -0.9711 0.9711 0.2387 142.1682 311.6741)" class="st0" cx="269.9" cy="65.2" rx="10.4" ry="11.4"/>
	<g>
		<g class="st1">
			<polygon points="271.7,21.1 269,57.7 283.9,59.8 291.5,25.1 			"/>
			<polygon class="st2" points="271.7,21.1 269,57.7 283.9,59.8 291.5,25.1 			"/>
		</g>
		<g>
			<polygon class="st3" points="269,18.5 266.4,55 281.2,57.1 288.8,22.5 			"/>
			<polygon class="st4" points="269,18.5 266.4,55 281.2,57.1 288.8,22.5 			"/>
		</g>
	</g>
	<g>
		<g class="st1">
			<polygon points="210.4,27.5 228.3,27.5 228.3,76.6 204,74.5 			"/>
			<polygon class="st2" points="210.4,27.5 228.3,27.5 228.3,76.6 204,74.5 			"/>
		</g>
		<g>
			<polygon class="st3" points="207.6,24.7 225.7,24.7 225.7,73.9 201.3,71.9 			"/>
			<polygon class="st4" points="207.6,24.7 225.7,24.7 225.7,73.9 201.3,71.9 			"/>
		</g>
	</g>
	<g>
		<g class="st1">
			<ellipse transform="matrix(0.2387 -0.9711 0.9711 0.2387 140.8922 319.5138)" cx="274.2" cy="69.9" rx="10.4" ry="11.4"/>
			
				<ellipse transform="matrix(0.2387 -0.9711 0.9711 0.2387 140.8922 319.5138)" class="st5" cx="274.2" cy="69.9" rx="10.4" ry="11.4"/>
		</g>
		<g>
			
				<ellipse transform="matrix(0.2387 -0.9711 0.9711 0.2387 141.5086 314.8868)" class="st3" cx="271.6" cy="67.2" rx="10.4" ry="11.4"/>
			
				<ellipse transform="matrix(0.2387 -0.9711 0.9711 0.2387 141.5086 314.8868)" class="st6" cx="271.6" cy="67.2" rx="10.4" ry="11.4"/>
		</g>
	</g>
	<path class="st0" d="M241.8,55.1l9.3,4.8c0,0.4-0.1,0.9-0.3,1.2c-0.3,1-0.7,2-1.2,2.9c-1.6,2.9-4.2,5.3-7.3,6.5
		c-5.2,2.1-11.3,1.5-15-3c-0.5-0.6-0.9-1.1-1.1-1.7c-1.2-2.6-1.9-5.3-1.9-8.1c0.1-2.4,0.4-4.7,1-7c0.2-1.3,0.5-2.6,0.8-3.9h-5.8
		l0.7-9.3h7.6L230,31l11.5-2.9l-2,9.8h6.4l-1.8,9.3h-6.7c-0.1,0-0.4,0.8-0.4,0.9c-0.3,0.8-0.6,1.6-0.7,2.5c-0.4,2.4-0.6,5.8,0.9,7.9
		l0.1,0.1c0.2,0.3,0.5,0.6,0.8,0.7c0.6,0.2,1.2,0,1.7-0.4c0.5-0.5,0.9-1,1.2-1.7C241.3,56.4,241.6,55.8,241.8,55.1z"/>
	<g>
		<g class="st1">
			<path d="M247.7,60.2l9.3,4.8c0,0.4-0.1,0.9-0.3,1.2c-0.3,1-0.7,2-1.2,2.9c-1.6,2.9-4.2,5.3-7.3,6.5c-5.2,2.1-11.3,1.5-15-3
				c-0.5-0.6-0.9-1.1-1.1-1.7c-1.2-2.6-1.9-5.3-1.9-8c0.1-2.4,0.5-4.7,1-7c0-0.3,0.7-3.9,0.8-3.9h-5.8l0.7-9.3h7.6l1.4-6.6l11.5-2.9
				l-2,9.8h6.4l-1.8,9.3h-6.7c-0.1,0-0.4,0.8-0.4,0.9c-0.3,0.8-0.6,1.6-0.7,2.5c-0.4,2.4-0.6,5.8,0.9,7.9l0.1,0.1
				c0.2,0.3,0.5,0.6,0.8,0.7c0.6,0.2,1.2,0,1.7-0.4c0.5-0.5,0.9-1,1.2-1.7C247.2,61.6,247.5,61,247.7,60.2z"/>
			<path class="st2" d="M247.7,60.2l9.3,4.8c0,0.4-0.1,0.9-0.3,1.2c-0.3,1-0.7,2-1.2,2.9c-1.6,2.9-4.2,5.3-7.3,6.5
				c-5.2,2.1-11.3,1.5-15-3c-0.5-0.6-0.9-1.1-1.1-1.7c-1.2-2.6-1.9-5.3-1.9-8c0.1-2.4,0.5-4.7,1-7c0-0.3,0.7-3.9,0.8-3.9h-5.8
				l0.7-9.3h7.6l1.4-6.6l11.5-2.9l-2,9.8h6.4l-1.8,9.3h-6.7c-0.1,0-0.4,0.8-0.4,0.9c-0.3,0.8-0.6,1.6-0.7,2.5
				c-0.4,2.4-0.6,5.8,0.9,7.9l0.1,0.1c0.2,0.3,0.5,0.6,0.8,0.7c0.6,0.2,1.2,0,1.7-0.4c0.5-0.5,0.9-1,1.2-1.7
				C247.2,61.6,247.5,61,247.7,60.2z"/>
		</g>
		<g>
			<path class="st3" d="M245,57.6l9.3,4.8c0,0.4-0.1,0.9-0.3,1.2c-0.3,1-0.7,2-1.2,2.9c-1.6,2.9-4.2,5.3-7.3,6.5
				c-5.2,2.1-11.3,1.5-15-3c-0.5-0.6-0.9-1.1-1.1-1.7c-1.2-2.6-1.9-5.3-1.9-8c0.1-2.4,0.5-4.7,1-7c0-0.3,0.7-3.9,0.8-3.9h-5.8
				l0.7-9.3h7.6l1.4-6.6l11.5-2.9l-2,9.8h6.4l-1.8,9.3h-6.7c-0.1,0-0.4,0.8-0.4,0.9c-0.3,0.8-0.6,1.6-0.7,2.5
				c-0.4,2.4-0.6,5.8,0.9,7.9l0.1,0.1c0.2,0.3,0.5,0.6,0.8,0.7c0.6,0.2,1.2,0,1.7-0.4c0.5-0.5,0.9-1,1.2-1.7
				C244.5,58.9,244.8,58.2,245,57.6z"/>
			<path class="st4" d="M245,57.6l9.3,4.8c0,0.4-0.1,0.9-0.3,1.2c-0.3,1-0.7,2-1.2,2.9c-1.6,2.9-4.2,5.3-7.3,6.5
				c-5.2,2.1-11.3,1.5-15-3c-0.5-0.6-0.9-1.1-1.1-1.7c-1.2-2.6-1.9-5.3-1.9-8c0.1-2.4,0.5-4.7,1-7c0-0.3,0.7-3.9,0.8-3.9h-5.8
				l0.7-9.3h7.6l1.4-6.6l11.5-2.9l-2,9.8h6.4l-1.8,9.3h-6.7c-0.1,0-0.4,0.8-0.4,0.9c-0.3,0.8-0.6,1.6-0.7,2.5
				c-0.4,2.4-0.6,5.8,0.9,7.9l0.1,0.1c0.2,0.3,0.5,0.6,0.8,0.7c0.6,0.2,1.2,0,1.7-0.4c0.5-0.5,0.9-1,1.2-1.7
				C244.5,58.9,244.8,58.2,245,57.6z"/>
		</g>
	</g>
	<g>
		<g class="st1">
			<ellipse cx="218.8" cy="15.8" rx="12.3" ry="8.8"/>
			<ellipse class="st2" cx="218.8" cy="15.8" rx="12.3" ry="8.8"/>
		</g>
		<g>
			<ellipse class="st3" cx="216.1" cy="13.1" rx="12.3" ry="8.8"/>
			<ellipse class="st4" cx="216.1" cy="13.1" rx="12.3" ry="8.8"/>
		</g>
	</g>
	<g>
		<g class="st1">
			<path d="M71.6,51.8c0.7,5.2-0.1,10.6-2.3,15.4c-0.9,2.3-2.3,5-4.2,6.8c-7.1,6.7-21.7,5.1-21.7,5.1C31.8,79,14.1,68.6,14.1,68.6
				l0.3-0.6l11.8-21.3l0.3-0.4c0.7,0.8,1.4,1.5,2.2,2.2c3.5,3.1,7.8,5.3,12.3,6.4c5.4,1.5,6.2-2.6,6.2-2.6c0.5-2.2-2.4-3.9-3.8-4.5
				l0,0c-0.4-0.2-0.7-0.3-0.7-0.3c-2.4-0.8-8.8-3.1-8.8-3.1c-2.2-0.9-4.2-2.2-5.9-3.8l0,0c-3.2-3.2-5-7.7-4.8-12.2
				C23.7,4.1,46.8,6,46.8,6c9.2,0.1,15.8,2.9,20.3,5.9l0,0c2.9,1.9,5.4,4.3,7.4,7.1L62.7,32c-0.4-0.6-0.9-1-1.2-1.6
				c-0.5-0.5-0.9-1-1.4-1.6c-0.9-0.9-1.9-1.8-3-2.4l-0.2-0.1c-0.6-0.3-1.2-0.3-1.9-0.1c-0.6,0.2-1,0.5-1.4,0.9
				c-0.2,0.2-0.3,0.4-0.3,0.6s0,0.4,0,0.6c0.1,0.6,0.4,1,0.8,1.5c0.2,0.3,0.5,0.6,0.8,0.8c0.5,0.5,1,0.9,1.6,1.3
				c1.8,0.9,3.5,1.8,5.1,2.8c1.3,0.9,2.5,1.8,3.6,2.8C69,41.3,70.8,46.6,71.6,51.8z"/>
			<path class="st2" d="M71.6,51.8c0.7,5.2-0.1,10.6-2.3,15.4c-0.9,2.3-2.3,5-4.2,6.8c-7.1,6.7-21.7,5.1-21.7,5.1
				C31.8,79,14.1,68.6,14.1,68.6l0.3-0.6l11.8-21.3l0.3-0.4c0.7,0.8,1.4,1.5,2.2,2.2c3.5,3.1,7.8,5.3,12.3,6.4
				c5.4,1.5,6.2-2.6,6.2-2.6c0.5-2.2-2.4-3.9-3.8-4.5l0,0c-0.4-0.2-0.7-0.3-0.7-0.3c-2.4-0.8-8.8-3.1-8.8-3.1
				c-2.2-0.9-4.2-2.2-5.9-3.8l0,0c-3.2-3.2-5-7.7-4.8-12.2C23.7,4.1,46.8,6,46.8,6c9.2,0.1,15.8,2.9,20.3,5.9l0,0
				c2.9,1.9,5.4,4.3,7.4,7.1L62.7,32c-0.4-0.6-0.9-1-1.2-1.6c-0.5-0.5-0.9-1-1.4-1.6c-0.9-0.9-1.9-1.8-3-2.4l-0.2-0.1
				c-0.6-0.3-1.2-0.3-1.9-0.1c-0.6,0.2-1,0.5-1.4,0.9c-0.2,0.2-0.3,0.4-0.3,0.6s0,0.4,0,0.6c0.1,0.6,0.4,1,0.8,1.5
				c0.2,0.3,0.5,0.6,0.8,0.8c0.5,0.5,1,0.9,1.6,1.3c1.8,0.9,3.5,1.8,5.1,2.8c1.3,0.9,2.5,1.8,3.6,2.8C69,41.3,70.8,46.6,71.6,51.8z"
				/>
		</g>
		<g>
			<path class="st3" d="M69,49.2c0.7,5.2-0.1,10.6-2.3,15.4c-0.9,2.3-2.3,5-4.2,6.8c-7.1,6.7-21.7,5.1-21.7,5.1
				c-11.7-0.2-29.5-10.6-29.5-10.6l0.3-0.6L23.5,44l0.3-0.4c0.7,0.8,1.4,1.5,2.2,2.2c3.5,3.1,7.8,5.3,12.3,6.4
				c5.4,1.5,6.2-2.6,6.2-2.6c0.5-2.2-2.4-3.9-3.8-4.5l0,0c-0.4-0.2-0.7-0.3-0.7-0.3c-2.4-0.8-8.8-3.1-8.8-3.1
				c-2.2-0.9-4.2-2.2-5.9-3.8l0,0c-3.2-3.2-5-7.7-4.8-12.2C21.1,1.4,44.1,3.4,44.1,3.4c9.2,0.1,15.8,2.9,20.3,5.9l0,0
				c2.9,1.9,5.4,4.3,7.4,7.1L60.1,29.4c-0.4-0.6-0.9-1-1.2-1.6c-0.5-0.5-0.9-1-1.4-1.6c-0.9-0.9-1.9-1.8-3-2.4l-0.2-0.1
				c-0.6-0.3-1.2-0.3-1.9-0.1c-0.6,0.2-1,0.5-1.4,0.9c-0.2,0.2-0.3,0.4-0.3,0.6s0,0.4,0,0.6c0.1,0.6,0.4,1,0.8,1.5
				c0.2,0.3,0.5,0.6,0.8,0.8c0.5,0.5,1,0.9,1.6,1.3c1.8,0.9,3.5,1.8,5.1,2.8c1.3,0.9,2.5,1.8,3.6,2.8C66.2,38.7,68.1,44,69,49.2z"/>
			<path class="st4" d="M69,49.2c0.7,5.2-0.1,10.6-2.3,15.4c-0.9,2.3-2.3,5-4.2,6.8c-7.1,6.7-21.7,5.1-21.7,5.1
				c-11.7-0.2-29.5-10.6-29.5-10.6l0.3-0.6L23.5,44l0.3-0.4c0.7,0.8,1.4,1.5,2.2,2.2c3.5,3.1,7.8,5.3,12.3,6.4
				c5.4,1.5,6.2-2.6,6.2-2.6c0.5-2.2-2.4-3.9-3.8-4.5l0,0c-0.4-0.2-0.7-0.3-0.7-0.3c-2.4-0.8-8.8-3.1-8.8-3.1
				c-2.2-0.9-4.2-2.2-5.9-3.8l0,0c-3.2-3.2-5-7.7-4.8-12.2C21.1,1.4,44.1,3.4,44.1,3.4c9.2,0.1,15.8,2.9,20.3,5.9l0,0
				c2.9,1.9,5.4,4.3,7.4,7.1L60.1,29.4c-0.4-0.6-0.9-1-1.2-1.6c-0.5-0.5-0.9-1-1.4-1.6c-0.9-0.9-1.9-1.8-3-2.4l-0.2-0.1
				c-0.6-0.3-1.2-0.3-1.9-0.1c-0.6,0.2-1,0.5-1.4,0.9c-0.2,0.2-0.3,0.4-0.3,0.6s0,0.4,0,0.6c0.1,0.6,0.4,1,0.8,1.5
				c0.2,0.3,0.5,0.6,0.8,0.8c0.5,0.5,1,0.9,1.6,1.3c1.8,0.9,3.5,1.8,5.1,2.8c1.3,0.9,2.5,1.8,3.6,2.8C66.2,38.7,68.1,44,69,49.2z"/>
		</g>
	</g>
	<path class="st0" d="M100.9,37.9c0,0-4.8-5.2-14.7-1.7c0,0-2.9,0.6-5.3,4.5v-4.9L61,38l4.5,56.4l20-1.8l-1.1-15.9
		c0,0,8.8,5.9,16.9,0c0,0,7-4.1,7.3-14.3C108.6,62.4,109.3,43.5,100.9,37.9z M90.6,62.6c-1.4,3.7-5.8,2.4-5.8,2.4l-1.1-11.4
		c1-1,2.6-1.6,4.1-1.6C93.6,54,90.6,62.6,90.6,62.6z"/>
	<g>
		<g class="st1">
			<path d="M106.8,43.1c0,0-4.8-5.2-14.7-1.7c0,0-2.9,0.6-5.3,4.5v-5L67,43.1l4.5,56.4l20-1.7l-1.1-16c0,0,8.8,5.9,16.9,0
				c0,0,7-4.1,7.3-14.3C114.6,67.6,115.3,48.7,106.8,43.1z M96.5,67.8c-1.4,3.7-5.8,2.4-5.8,2.4l-1.1-11.4c1-1,2.6-1.6,4.1-1.6
				C99.5,59.2,96.5,67.8,96.5,67.8z"/>
			<path class="st2" d="M106.8,43.1c0,0-4.8-5.2-14.7-1.7c0,0-2.9,0.6-5.3,4.5v-5L67,43.1l4.5,56.4l20-1.7l-1.1-16
				c0,0,8.8,5.9,16.9,0c0,0,7-4.1,7.3-14.3C114.6,67.6,115.3,48.7,106.8,43.1z M96.5,67.8c-1.4,3.7-5.8,2.4-5.8,2.4l-1.1-11.4
				c1-1,2.6-1.6,4.1-1.6C99.5,59.2,96.5,67.8,96.5,67.8z"/>
		</g>
		<g>
			<path class="st3" d="M104.2,40.4c0,0-4.8-5.2-14.7-1.7c0,0-2.9,0.6-5.3,4.5v-5l-19.9,2.2l4.5,56.4l20-1.7l-1.1-15.9
				c0,0,8.8,5.9,16.9,0c0,0,7-4.1,7.3-14.3C111.9,64.9,112.6,45.9,104.2,40.4z M93.9,65.1c-1.4,3.7-5.8,2.4-5.8,2.4L87,56.2
				c1-1,2.6-1.6,4.1-1.6C96.8,56.5,93.9,65.1,93.9,65.1z"/>
			<path class="st4" d="M104.2,40.4c0,0-4.8-5.2-14.7-1.7c0,0-2.9,0.6-5.3,4.5v-5l-19.9,2.2l4.5,56.4l20-1.7l-1.1-15.9
				c0,0,8.8,5.9,16.9,0c0,0,7-4.1,7.3-14.3C111.9,64.9,112.6,45.9,104.2,40.4z M93.9,65.1c-1.4,3.7-5.8,2.4-5.8,2.4L87,56.2
				c1-1,2.6-1.6,4.1-1.6C96.8,56.5,93.9,65.1,93.9,65.1z"/>
		</g>
	</g>
	<path class="st0" d="M144.5,38.7c-7.8-13.2-20.1-12.1-20.1-12.1c-14.3-0.6-19.3,13.7-19.3,13.7c-4.3,12.5,4.6,21.4,4.6,21.4
		c4.4,5.1,10.8,8,17.6,7.9c11.5,0.5,17.1-9.8,17.1-9.8C149.4,50.1,144.5,38.7,144.5,38.7z M130.2,49.7c-0.5,0.6-1.1,0.9-1.8,0.9
		c-0.9-0.2-1.8-0.7-2.5-1.4c-0.7-0.7-1.1-1.4-1.4-2.2l-0.1-0.2c-0.3-0.7-0.4-1.4-0.5-2.2c-0.1-0.9,0.2-1.7,0.7-2.4
		c0.3-0.4,0.7-0.8,1-0.9c0.2-0.1,0.4-0.2,0.6-0.2c1.1,0.1,2.3,0.6,3,1.5c0.4,0.4,0.7,0.9,0.9,1.3c0.5,0.9,0.8,2,0.8,2.9
		C131.1,48,130.8,49,130.2,49.7z"/>
	<g>
		<g class="st1">
			<path d="M150.5,44c-7.8-13.2-20.1-12.1-20.1-12.1c-14.3-0.6-19.3,13.7-19.3,13.7c-4.3,12.5,4.6,21.4,4.6,21.4
				c4.4,5.1,10.9,8,17.6,7.9c11.5,0.5,17.1-9.8,17.1-9.8C155.4,55.3,150.5,44,150.5,44z M136.2,54.9c-0.5,0.6-1.1,0.9-1.8,0.9
				c-0.9-0.2-1.8-0.7-2.5-1.4c-0.7-0.7-1.1-1.4-1.4-2.2l-0.1-0.2c-0.3-0.7-0.4-1.4-0.5-2.2c-0.1-0.9,0.2-1.7,0.7-2.4
				c0.3-0.4,0.7-0.8,1-0.9c0.2-0.1,0.4-0.2,0.6-0.2c1.1,0.1,2.3,0.6,3,1.5c0.4,0.4,0.7,0.9,0.9,1.3c0.5,0.9,0.8,2,0.8,2.9
				C137,53.2,136.7,54.2,136.2,54.9z"/>
			<path class="st2" d="M150.5,44c-7.8-13.2-20.1-12.1-20.1-12.1c-14.3-0.6-19.3,13.7-19.3,13.7c-4.3,12.5,4.6,21.4,4.6,21.4
				c4.4,5.1,10.9,8,17.6,7.9c11.5,0.5,17.1-9.8,17.1-9.8C155.4,55.3,150.5,44,150.5,44z M136.2,54.9c-0.5,0.6-1.1,0.9-1.8,0.9
				c-0.9-0.2-1.8-0.7-2.5-1.4c-0.7-0.7-1.1-1.4-1.4-2.2l-0.1-0.2c-0.3-0.7-0.4-1.4-0.5-2.2c-0.1-0.9,0.2-1.7,0.7-2.4
				c0.3-0.4,0.7-0.8,1-0.9c0.2-0.1,0.4-0.2,0.6-0.2c1.1,0.1,2.3,0.6,3,1.5c0.4,0.4,0.7,0.9,0.9,1.3c0.5,0.9,0.8,2,0.8,2.9
				C137,53.2,136.7,54.2,136.2,54.9z"/>
		</g>
		<g>
			<path class="st3" d="M147.8,41.2c-7.8-13.2-20.1-12-20.1-12c-14.3-0.6-19.3,13.7-19.3,13.7c-4.3,12.5,4.6,21.4,4.6,21.4
				c4.4,5.1,10.9,8,17.6,7.9c11.5,0.5,17.1-9.9,17.1-9.9C152.7,52.7,147.8,41.2,147.8,41.2z M133.4,52.3c-0.5,0.6-1.1,0.9-1.8,0.9
				c-0.9-0.2-1.8-0.7-2.5-1.4c-0.7-0.7-1.1-1.4-1.4-2.2l-0.1-0.2c-0.3-0.7-0.4-1.4-0.5-2.2c-0.1-0.9,0.2-1.7,0.7-2.4
				c0.3-0.4,0.7-0.8,1-0.9c0.2-0.1,0.4-0.2,0.6-0.2c1.1,0.1,2.3,0.6,3,1.5c0.4,0.4,0.7,0.9,0.9,1.3c0.5,0.9,0.8,2,0.8,2.9
				C134.4,50.5,134,51.4,133.4,52.3z"/>
			<path class="st4" d="M147.8,41.2c-7.8-13.2-20.1-12-20.1-12c-14.3-0.6-19.3,13.7-19.3,13.7c-4.3,12.5,4.6,21.4,4.6,21.4
				c4.4,5.1,10.9,8,17.6,7.9c11.5,0.5,17.1-9.9,17.1-9.9C152.7,52.7,147.8,41.2,147.8,41.2z M133.4,52.3c-0.5,0.6-1.1,0.9-1.8,0.9
				c-0.9-0.2-1.8-0.7-2.5-1.4c-0.7-0.7-1.1-1.4-1.4-2.2l-0.1-0.2c-0.3-0.7-0.4-1.4-0.5-2.2c-0.1-0.9,0.2-1.7,0.7-2.4
				c0.3-0.4,0.7-0.8,1-0.9c0.2-0.1,0.4-0.2,0.6-0.2c1.1,0.1,2.3,0.6,3,1.5c0.4,0.4,0.7,0.9,0.9,1.3c0.5,0.9,0.8,2,0.8,2.9
				C134.4,50.5,134,51.4,133.4,52.3z"/>
		</g>
	</g>
	<path class="st0" d="M171.8,45.1l12.8,6.6c-0.1,0.6-0.2,1.1-0.4,1.7c-0.4,1.4-0.9,2.7-1.6,4.1c-2.2,4.1-5.8,7.3-10,9
		c-7.1,2.8-15.6,2.1-20.6-4.2c-0.6-0.8-1.1-1.5-1.6-2.4c-1.7-3.4-2.6-7.3-2.6-11.2c0.1-3.2,0.6-6.5,1.4-9.7c0.1-0.4,0.9-5.3,1-5.3
		h-7.9l0.9-12.7h10.4l1.9-9.2l15.7-4l-2.7,13.5h8.9l-2.5,12.8h-9.2c-0.1,0-0.5,1-0.6,1.1c-0.5,1.1-0.8,2.2-0.9,3.4
		c-0.6,3.2-0.8,7.9,1.2,10.8c0,0.1,0.1,0.1,0.1,0.2c0.3,0.4,0.7,0.8,1.1,0.9c0.9,0.3,1.7,0.1,2.3-0.5c0.7-0.7,1.3-1.4,1.7-2.4
		C171.1,46.9,171.6,46,171.8,45.1z"/>
	<g>
		<g class="st1">
			<path d="M177.8,50.3l12.8,6.6c-0.1,0.6-0.2,1.1-0.4,1.7c-0.4,1.4-0.9,2.7-1.6,4.1c-2.2,4.1-5.8,7.2-10,9
				c-7.1,2.8-15.6,2.1-20.6-4.2c-0.6-0.8-1.1-1.5-1.6-2.4c-1.8-3.4-2.6-7.3-2.6-11.2c0.1-3.2,0.6-6.5,1.4-9.7c0.1-0.4,0.9-5.3,1-5.3
				h-7.9l0.9-12.7h10.4l1.9-9.2l15.7-4l-2.7,13.5h8.9l-2.5,12.8h-9.2c-0.1,0-0.5,1-0.6,1.1c-0.5,1.1-0.8,2.3-0.9,3.4
				c-0.6,3.2-0.8,7.9,1.2,10.8c0,0.1,0.1,0.1,0.1,0.2c0.3,0.4,0.7,0.8,1.1,0.9c0.9,0.3,1.7,0.1,2.3-0.5c0.8-0.7,1.3-1.4,1.7-2.3
				C177.1,52.1,177.5,51.1,177.8,50.3z"/>
			<path class="st2" d="M177.8,50.3l12.8,6.6c-0.1,0.6-0.2,1.1-0.4,1.7c-0.4,1.4-0.9,2.7-1.6,4.1c-2.2,4.1-5.8,7.2-10,9
				c-7.1,2.8-15.6,2.1-20.6-4.2c-0.6-0.8-1.1-1.5-1.6-2.4c-1.8-3.4-2.6-7.3-2.6-11.2c0.1-3.2,0.6-6.5,1.4-9.7c0.1-0.4,0.9-5.3,1-5.3
				h-7.9l0.9-12.7h10.4l1.9-9.2l15.7-4l-2.7,13.5h8.9l-2.5,12.8h-9.2c-0.1,0-0.5,1-0.6,1.1c-0.5,1.1-0.8,2.3-0.9,3.4
				c-0.6,3.2-0.8,7.9,1.2,10.8c0,0.1,0.1,0.1,0.1,0.2c0.3,0.4,0.7,0.8,1.1,0.9c0.9,0.3,1.7,0.1,2.3-0.5c0.8-0.7,1.3-1.4,1.7-2.3
				C177.1,52.1,177.5,51.1,177.8,50.3z"/>
		</g>
		<g>
			<path class="st3" d="M175.2,47.5l12.8,6.6c-0.1,0.6-0.2,1.1-0.4,1.7c-0.4,1.4-0.9,2.7-1.6,4.1c-2.2,4.1-5.8,7.2-10,9
				c-7.1,2.8-15.6,2.1-20.6-4.2c-0.6-0.8-1.1-1.5-1.6-2.4c-1.8-3.4-2.6-7.3-2.6-11.2c0.1-3.2,0.6-6.5,1.4-9.7c0.1-0.4,0.9-5.3,1-5.3
				h-7.9l0.9-12.7h10.4l1.9-9.2l15.7-4l-2.7,13.4h8.9l-2.5,12.8H169c-0.1,0-0.5,1-0.6,1.1c-0.5,1.1-0.8,2.3-0.9,3.4
				c-0.6,3.2-0.8,7.9,1.2,10.8c0,0.1,0.1,0.1,0.1,0.2c0.3,0.4,0.7,0.8,1.1,0.9c0.9,0.3,1.7,0.1,2.3-0.5c0.8-0.7,1.3-1.4,1.7-2.3
				C174.4,49.4,174.8,48.5,175.2,47.5z"/>
			<path class="st4" d="M175.2,47.5l12.8,6.6c-0.1,0.6-0.2,1.1-0.4,1.7c-0.4,1.4-0.9,2.7-1.6,4.1c-2.2,4.1-5.8,7.2-10,9
				c-7.1,2.8-15.6,2.1-20.6-4.2c-0.6-0.8-1.1-1.5-1.6-2.4c-1.8-3.4-2.6-7.3-2.6-11.2c0.1-3.2,0.6-6.5,1.4-9.7c0.1-0.4,0.9-5.3,1-5.3
				h-7.9l0.9-12.7h10.4l1.9-9.2l15.7-4l-2.7,13.4h8.9l-2.5,12.8H169c-0.1,0-0.5,1-0.6,1.1c-0.5,1.1-0.8,2.3-0.9,3.4
				c-0.6,3.2-0.8,7.9,1.2,10.8c0,0.1,0.1,0.1,0.1,0.2c0.3,0.4,0.7,0.8,1.1,0.9c0.9,0.3,1.7,0.1,2.3-0.5c0.8-0.7,1.3-1.4,1.7-2.3
				C174.4,49.4,174.8,48.5,175.2,47.5z"/>
		</g>
	</g>
</g>
</svg>
